<svg width="16" height="16" viewBox="0 0 16 16" fill="none" xmlns="http://www.w3.org/2000/svg">
<path d="M9.04512 11.8417C9.53911 11.849 9.89751 11.6668 10.169 11.3071C10.3053 11.1266 10.4449 10.9487 10.5811 10.7682C10.967 10.2574 11.5844 10.1622 12.1175 10.5308C12.517 10.8069 12.9125 11.0896 13.3203 11.3524C13.7841 11.6513 14.2589 11.933 14.7307 12.2196C15.2542 12.5377 15.4329 13.1414 15.1471 13.678C14.922 14.1008 14.7028 14.5277 14.3998 14.9046C13.9018 15.5242 13.2381 15.8392 12.4673 15.9474C11.2197 16.1229 10.0407 15.8359 8.89427 15.3803C7.39937 14.7859 6.08814 13.8985 4.88731 12.8402C3.78163 11.8659 2.78901 10.7907 1.95122 9.57698C1.16183 8.43337 0.545497 7.20644 0.210313 5.85354C-0.00319766 4.99129 -0.086082 4.11944 0.114167 3.23735C0.318394 2.33872 0.824651 1.6755 1.63526 1.23875C1.84413 1.12634 2.05167 1.01129 2.25988 0.897223C2.82117 0.588755 3.43418 0.739849 3.76738 1.28835C4.15097 1.91983 4.53025 2.55363 4.94898 3.16263C5.11773 3.40795 5.2898 3.65095 5.46087 3.89462C5.83617 4.42956 5.7387 5.04385 5.21852 5.43961C4.98147 5.61979 4.72552 5.78246 4.51765 5.99207C4.06543 6.44766 4.01404 7.19718 4.38437 7.78138C4.65921 8.21516 4.99407 8.60595 5.3329 8.99079C6.14052 9.90859 7.02971 10.7398 8.01205 11.4708C8.33232 11.7091 8.68076 11.8543 9.04512 11.8417ZM11.7392 15.4038C11.8774 15.4038 12.0164 15.4144 12.1533 15.4022C12.8416 15.3407 13.4599 15.1238 13.9167 14.5736C14.2327 14.1931 14.4512 13.752 14.672 13.3143C14.7565 13.1467 14.6786 12.9189 14.5158 12.782C14.4615 12.736 14.3991 12.6987 14.3375 12.6623C13.8614 12.3826 13.3876 12.0993 12.9294 11.7911C12.5538 11.5385 12.1808 11.2823 11.8092 11.0244C11.5081 10.8155 11.2568 10.8485 11.0337 11.1349C10.8915 11.3177 10.7525 11.5028 10.61 11.6857C10.4028 11.9515 10.1525 12.1644 9.83352 12.2851C9.05109 12.5813 8.33729 12.4312 7.67919 11.9442C6.49726 11.0701 5.44065 10.064 4.51698 8.92235C4.21263 8.54644 3.88143 8.18606 3.70439 7.72286C3.36323 6.82887 3.59863 5.96298 4.34691 5.37051C4.50273 5.24718 4.6622 5.12849 4.82067 5.00881C5.15553 4.75655 5.18901 4.51784 4.95064 4.17664C4.65358 3.75212 4.35619 3.32728 4.07405 2.89284C3.80683 2.48155 3.56116 2.05638 3.30157 1.64013C3.08905 1.29926 2.84504 1.2414 2.48996 1.43646C2.30132 1.54028 2.11267 1.64409 1.92237 1.7446C1.315 2.06563 0.906873 2.54768 0.722538 3.21222C0.578982 3.72997 0.571357 4.25863 0.620093 4.78696C0.713255 5.79866 1.04744 6.74225 1.48905 7.64947C2.17931 9.06716 3.13248 10.2957 4.23319 11.4169C5.59747 12.8068 7.10629 13.9964 8.91781 14.7618C9.81926 15.1426 10.7492 15.4094 11.7392 15.4038Z" fill="white"/>
<path d="M7.16686 1.75358e-05C8.32923 0.07606 9.37092 0.32667 10.3675 0.757797C11.934 1.43524 13.2217 2.46743 14.2286 3.83719C15.2464 5.22215 15.8346 6.77739 15.9967 8.48966C16.0196 8.73234 15.9277 8.87947 15.7444 8.89831C15.5627 8.91683 15.4367 8.78028 15.4149 8.54587C15.271 6.99262 14.7538 5.57162 13.8447 4.30468C12.4211 2.32064 10.4922 1.11883 8.08423 0.687045C7.79148 0.634476 7.49309 0.61497 7.19736 0.579263C6.99678 0.555128 6.88638 0.44437 6.895 0.277738C6.90395 0.113751 7.05016 -0.00163556 7.16686 1.75358e-05Z" fill="white"/>
<path d="M7.74788 1.98272C8.09599 2.04389 8.45969 2.13448 8.81576 2.25449C10.0365 2.66545 11.0957 3.33165 11.9872 4.26036C12.9885 5.30346 13.6489 6.52973 13.9725 7.93685C14.0239 8.16101 13.9496 8.31342 13.7726 8.35905C13.5942 8.40501 13.4629 8.30483 13.4092 8.07372C13.0836 6.67388 12.41 5.46712 11.3749 4.46832C10.37 3.49894 9.17946 2.86944 7.80689 2.58842C7.74754 2.57618 7.6872 2.56527 7.62952 2.54676C7.47933 2.49915 7.39678 2.36128 7.42562 2.21382C7.45347 2.07133 7.5715 1.98008 7.74788 1.98272Z" fill="white"/>
<path d="M11.7167 7.46948C11.7147 7.61396 11.6455 7.71216 11.5072 7.75117C11.3511 7.79514 11.235 7.73001 11.1644 7.59115C11.0494 7.36501 10.9333 7.14018 10.7954 6.9266C10.1632 5.94962 9.3121 5.23185 8.24123 4.77229C8.04463 4.68798 7.96208 4.56201 8.00451 4.41092C8.05789 4.22081 8.23128 4.14477 8.44347 4.22941C9.00211 4.45225 9.50837 4.76369 9.97318 5.14291C10.6893 5.72745 11.2506 6.43464 11.6534 7.26648C11.6726 7.30616 11.6909 7.34649 11.7048 7.38782C11.7134 7.41328 11.7131 7.44171 11.7167 7.46948Z" fill="white"/>
</svg>
