<svg width="18" height="12" viewBox="0 0 18 12" fill="none" xmlns="http://www.w3.org/2000/svg">
<path d="M8.98326 12.0004C6.41024 12.0004 3.83753 12.0004 1.2645 12.0004C0.479578 12.0004 0.0031038 11.511 0.0031038 10.7039C0.00279379 7.57098 0.00589382 4.43832 3.76972e-06 1.30567C-0.000926238 0.827991 0.170195 0.452693 0.543129 0.176609C0.70526 0.0564758 0.903972 0.0263633 1.09989 0.00354118C1.14081 -0.00121343 1.18235 0.00100539 1.22389 0.00100539C6.41117 0.00100539 11.5981 0.000688416 16.7854 0.00132236C17.3986 0.00132236 17.8763 0.393419 17.9808 0.982674C17.9972 1.07555 17.9988 1.17191 17.9991 1.26668C18 4.42564 18.0006 7.58461 17.9991 10.7439C17.9988 11.5078 17.5121 12.0004 16.764 12.0004C14.1705 12.0004 11.5767 12.0004 8.98326 12.0004ZM1.41114 0.688522C1.53731 0.809923 1.63775 0.905015 1.73633 1.00201C3.32354 2.55994 4.91045 4.11786 6.49735 5.67611C7.17533 6.34175 7.85113 7.00993 8.53097 7.67336C8.81214 7.94786 9.14725 7.94057 9.4275 7.66512C9.71425 7.38333 10.0004 7.1009 10.2874 6.81943C12.3034 4.84151 14.3196 2.8636 16.3353 0.885363C16.3923 0.829258 16.4602 0.780127 16.5014 0.688522C11.4741 0.688522 6.46325 0.688522 1.41114 0.688522ZM1.23877 11.3417C6.4276 11.3417 11.582 11.3417 16.7631 11.3417C16.7157 11.291 16.6905 11.259 16.6605 11.2323C14.9601 9.72291 13.2585 8.21443 11.56 6.70279C11.4617 6.6153 11.3997 6.61086 11.3036 6.70722C10.8386 7.17286 10.3662 7.63057 9.89746 8.0924C9.31063 8.67024 8.62831 8.66676 8.04674 8.0886C7.57647 7.62106 7.09845 7.16145 6.62817 6.69391C6.54633 6.61276 6.49177 6.61213 6.41024 6.69169C6.26826 6.82989 6.11574 6.957 5.96818 7.08949C4.64477 8.27783 3.32137 9.46616 1.99859 10.6548C1.75183 10.8761 1.50662 11.0992 1.23877 11.3417ZM17.3682 5.98547C17.3682 4.42216 17.3682 2.85916 17.3679 1.29584C17.3679 1.20107 17.3744 1.10534 17.3425 1.01342C17.2932 0.872367 17.2616 0.864759 17.1556 0.968727C16.7829 1.3342 16.4103 1.69999 16.0377 2.06546C15.2664 2.82239 14.4951 3.57901 13.7238 4.33594C13.1612 4.88811 12.5985 5.43996 12.0365 5.99276C11.8815 6.14523 11.8827 6.14586 12.0414 6.28279C12.136 6.36457 12.2296 6.44794 12.3232 6.53099C13.9368 7.96498 15.5497 9.39928 17.1652 10.8314C17.2154 10.8757 17.2637 10.9718 17.3385 10.9315C17.3967 10.9002 17.3676 10.8051 17.3676 10.7385C17.3685 9.15394 17.3682 7.56971 17.3682 5.98547ZM0.633649 6.00037C0.633959 6.00037 0.633959 6.00037 0.634269 6.00037C0.634269 7.59507 0.633959 9.18976 0.635199 10.7845C0.635199 10.845 0.611019 10.93 0.67488 10.9578C0.73068 10.9823 0.76757 10.9049 0.808491 10.8681C1.44555 10.2979 2.08136 9.72608 2.71749 9.15426C3.79971 8.1821 4.881 7.20868 5.96508 6.23874C6.04599 6.16615 6.04072 6.12019 5.96787 6.05014C5.73071 5.82255 5.49697 5.59116 5.26261 5.36072C4.03779 4.15717 2.81328 2.9533 1.58877 1.74912C1.33209 1.49649 1.07416 1.24481 0.822441 0.987428C0.73316 0.89614 0.691 0.911989 0.65721 1.02832C0.630239 1.12183 0.633959 1.21628 0.633959 1.31106C0.633339 2.87437 0.633649 4.43737 0.633649 6.00037Z" fill="white"/>
</svg>
