<svg width="150" height="97" viewBox="0 0 150 97" fill="none" xmlns="http://www.w3.org/2000/svg">
<path d="M124.774 2.34877C132.178 15.1406 139.583 27.9325 146.981 40.7244C148.219 42.8658 148.198 42.8587 146.119 44.05C140.793 47.099 135.475 50.1552 130.163 53.2255C129.11 53.8353 128.17 54.3884 127.486 52.7859C127.109 51.8995 126.447 51.9917 125.735 52.4101C124.41 53.183 123.051 53.8991 121.748 54.7146C120.808 55.3031 120.117 55.296 119.626 54.2111C119.505 53.9417 119.37 53.6722 119.184 53.4453C118.615 52.7575 118.629 51.3252 117.141 51.7648C115.24 52.3321 114.514 53.3319 114.649 55.0266C114.763 56.4518 115.14 57.6289 116.237 58.7634C118.237 60.8411 118.643 63.4576 117.447 66.1379C116.294 68.7261 114.243 70.2364 111.367 70.2364C109.936 70.2364 109.494 70.52 109.594 72.0658C109.921 77.2634 105.571 80.6458 100.473 79.185C99.156 78.8092 99.0136 79.1638 98.9994 80.3408C98.9211 85.8079 94.1294 88.9491 89.0386 86.829C87.636 86.2404 87.6431 86.7439 87.6217 87.8642C87.5078 93.388 82.1536 96.3803 77.2978 93.5865C75.7671 92.7073 74.5638 92.3953 72.9689 93.5014C70.6193 95.1465 68.0063 95.416 65.4716 93.8276C63.001 92.2818 61.8974 89.9986 62.2321 87.0701C62.2534 86.9141 62.168 86.7439 62.1324 86.5879C61.5699 86.4815 61.2139 86.8573 60.7938 87.0417C55.9523 89.1689 50.8615 85.9142 50.89 80.6316C50.8971 79.3269 50.8473 78.8801 49.3023 79.3694C44.4322 80.9081 39.7829 77.1712 40.26 72.1013C40.3952 70.6406 40.0962 70.4279 38.6865 70.4633C35.8029 70.5271 33.1756 68.5133 32.2002 65.8117C31.2533 63.2023 32.0436 60.1462 34.1582 58.2316C36.2586 56.3313 35.8955 53.3177 33.4533 51.9633C32.5562 51.467 32.0151 51.5095 31.417 52.4242C29.5089 55.3669 29.4804 55.3457 26.3903 53.5729C25.9276 53.3106 25.422 53.105 25.0091 52.7859C23.8699 51.9137 22.9443 51.7648 22.2465 53.3035C21.8834 54.0977 21.2284 53.9629 20.6018 53.6013C14.7208 50.219 8.84684 46.8225 2.95866 43.4472C1.78387 42.7736 2.30362 42.0503 2.77354 41.2491C6.74646 34.4348 10.7051 27.6063 14.6781 20.792C18.2736 14.6443 21.8763 8.49652 25.4719 2.34877C26.7748 2.34877 28.0707 2.34877 29.3736 2.34877C30.3277 2.93021 31.2746 3.52584 32.25 4.08602C36.3938 6.46854 40.5519 8.82979 44.6886 11.2265C45.3009 11.581 46.3973 11.9639 45.6925 12.8928C44.3682 14.6443 45.5643 15.1832 46.8459 15.8143C47.5294 16.1546 48.1773 16.573 48.8537 16.9417C51.3172 18.2961 51.2887 18.2748 49.8932 20.7282C49.4803 21.4515 48.3411 22.3662 49.58 23.1249C50.769 23.8553 51.8939 25.4082 53.6454 24.2949C58.6294 21.1253 63.9266 20.6148 69.1598 23.2525C73.2608 25.3231 76.892 25.2451 80.9788 23.21C86.1479 20.636 91.4096 21.0969 96.3152 24.2807C97.0343 24.7487 97.6395 24.8125 98.4369 24.4083C101.47 22.8767 101.484 22.9051 99.7683 19.9979C99.6758 19.8489 99.5975 19.6859 99.4978 19.544C98.857 18.6435 99.156 18.0691 100.075 17.587C101.377 16.8992 102.631 16.1121 103.934 15.4172C104.859 14.9279 105.357 14.389 104.596 13.3679C103.862 12.3894 104.325 11.8008 105.265 11.2974C106.824 10.4607 108.355 9.56723 109.872 8.65252C113.41 6.53236 117.127 4.72419 120.509 2.34167C121.94 2.34877 123.357 2.34877 124.774 2.34877ZM72.321 26.6278C72.2641 26.486 72.2071 26.3371 72.1501 26.1952C70.3915 25.5145 68.64 24.8267 66.8743 24.1673C62.6806 22.5931 58.6436 23.1887 55.0338 25.6067C53.261 26.798 51.9295 26.9469 50.3489 25.6422C50.1211 25.4578 49.8149 25.3727 49.5942 25.1883C48.2485 24.0467 47.5508 24.6423 46.7889 25.9825C42.7021 33.1443 38.5369 40.2635 34.386 47.3897C33.0119 49.7581 32.9549 49.8361 35.3543 51.0699C36.9634 51.8924 37.9674 52.793 37.2055 54.7358C37.056 55.1258 36.757 55.7215 37.2838 56.0193C37.7466 56.2746 38.1525 55.7853 38.5441 55.5584C41.3137 53.9842 44.1047 52.4384 46.8388 50.7933C52.4706 47.4181 58.786 51.9846 57.832 57.4233C57.6326 58.5649 58.0883 58.7989 59.1634 58.8131C63.8839 58.8982 66.6037 61.8196 66.3545 66.5066C66.2976 67.5419 66.326 67.9461 67.6076 67.8113C72.6556 67.2866 76.3794 71.6475 75.0337 76.5543C74.6635 77.9087 74.9839 78.2349 76.2156 78.5681C78.8073 79.2772 80.5374 81.0216 81.0785 83.6665C81.5912 86.1766 80.6086 88.2684 78.793 90.0269C78.3018 90.502 77.1982 90.6935 77.3619 91.4025C77.547 92.1967 78.6079 92.3669 79.3769 92.6434C80.1031 92.8987 80.8507 93.0405 81.641 92.8916C83.8268 92.4662 85.2508 91.2111 85.8275 89.0697C86.3615 87.0701 85.4502 85.0775 83.4566 83.6026C82.9368 83.2197 81.9329 82.9361 82.531 82.0426C83.0223 81.3123 83.7271 81.9292 84.254 82.2199C85.913 83.1275 87.5221 84.1203 89.181 85.0208C91.851 86.4673 94.8698 85.8079 96.4291 83.4963C98.1023 81.0145 97.4544 77.8307 94.7986 76.1005C92.9688 74.9093 91.0322 73.8882 89.1525 72.7749C88.6755 72.4913 88.2127 72.1297 88.6043 71.5057C88.9247 71.0022 89.4231 71.1511 89.8716 71.3709C90.2419 71.5553 90.5979 71.7609 90.961 71.9666C93.8802 73.64 96.7922 75.3276 99.7185 76.9869C101.662 78.0931 103.642 78.2987 105.571 76.994C108.917 74.7249 108.811 70.1655 105.315 68.0312C102.189 66.1237 98.9709 64.3794 95.8168 62.5216C95.2686 62.1954 94.2504 61.9189 94.7559 61.0183C95.2614 60.1178 96.0233 60.8269 96.5857 61.146C100.388 63.2945 104.183 65.4643 107.956 67.6553C109.281 68.4212 110.648 68.8537 112.186 68.485C114.35 67.9673 115.923 66.3223 116.208 64.2801C116.557 61.7841 115.61 59.9972 113.204 58.6145C102.51 52.4668 91.8011 46.3332 81.1426 40.1287C79.7969 39.3487 79.0992 39.6678 78.4726 40.8662C77.0914 43.5323 75.7243 46.2056 74.336 48.8717C72.2712 52.8426 68.2199 54.3104 64.5603 52.4171C60.9718 50.5593 59.8327 46.5034 61.8191 42.5183C63.4994 39.1431 65.2153 35.7891 66.9241 32.4281C68.1559 30.0172 69.3164 27.5212 72.321 26.6278ZM87.3369 23.3093C86.7673 23.3944 85.8062 23.4369 84.909 23.6993C80.4306 25.0182 76.1587 26.8972 71.8796 28.7408C70.9398 29.145 70.2278 29.8896 69.7578 30.8043C67.4937 35.2006 65.2153 39.5898 63.001 44.0074C62.0327 45.9361 62.3816 47.8294 63.6561 49.4886C64.959 51.1833 66.796 51.701 68.8821 51.3464C70.8045 51.0202 71.9793 49.7368 72.8194 48.1059C74.1722 45.4894 75.4039 42.8091 76.8635 40.2564C78.729 36.9662 79.0636 36.9591 82.3032 38.824C91.9649 44.3974 101.627 49.9566 111.303 55.5087C111.744 55.7569 112.171 56.2675 112.734 55.9909C113.161 55.7782 113.09 55.218 112.962 54.8706C112.129 52.6511 113.396 51.6088 115.183 50.8997C116.92 50.2048 116.885 49.2759 116.002 47.7939C112 41.0576 108.106 34.2646 104.176 27.4929C102.26 24.1956 102.218 24.1247 98.9852 26.1172C97.7178 26.8972 96.8207 26.8192 95.6744 25.9542C93.3248 24.1814 90.6192 23.4156 87.3369 23.3093ZM122.823 3.3273C122.623 3.41948 122.403 3.49748 122.196 3.61802C117.234 6.46145 112.278 9.31196 107.301 12.1412C106.497 12.595 106.404 13.1197 106.86 13.8714C107.536 14.9704 108.198 16.0908 108.846 17.2041C115.247 28.2516 121.655 39.2991 128.027 50.3608C128.625 51.4032 129.159 51.8215 130.37 51.1124C135.04 48.3612 139.754 45.6738 144.482 43.0076C145.578 42.3907 145.628 41.7738 145.016 40.7456C142.929 37.264 140.922 33.7328 138.885 30.2228C133.93 21.6713 128.974 13.1127 124.012 4.5682C123.727 4.07893 123.549 3.45494 122.823 3.3273ZM20.7371 51.5946C21.4847 51.5095 21.6841 50.9777 21.9404 50.531C28.9535 38.4624 35.9382 26.3867 42.9869 14.3394C43.763 13.0063 43.3999 12.4461 42.1824 11.7654C37.7039 9.26942 33.2255 6.75217 28.8396 4.08602C27.3515 3.18548 26.7036 3.4053 25.8564 4.8731C19.007 16.8282 12.0864 28.7479 5.13736 40.6464C4.44672 41.8234 4.48944 42.412 5.72831 43.1069C10.4203 45.7163 15.0554 48.425 19.719 51.0912C20.075 51.2968 20.4523 51.4528 20.7371 51.5946ZM38.8645 68.7119C39.904 68.7402 40.8438 68.4424 41.7338 67.9248C45.6213 65.6912 49.523 63.4859 53.3891 61.2098C56.1659 59.5718 57.006 56.5653 55.5109 53.9488C54.1225 51.5166 50.9043 50.6303 48.22 52.1122C44.0905 54.3955 40.0037 56.7567 35.9453 59.1676C33.8734 60.3943 33.1116 62.8407 33.8592 65.1948C34.5355 67.3008 36.5576 68.7261 38.8645 68.7119ZM59.32 60.6071C58.2876 60.5362 57.2695 60.9971 56.2869 61.5643C52.3994 63.7979 48.4977 66.0103 44.6174 68.2722C41.9189 69.8464 41.1072 72.7749 42.5882 75.3985C43.9979 77.9087 47.1307 78.7312 49.8149 77.2209C53.9801 74.8738 58.1239 72.4913 62.2463 70.0733C64.4321 68.7899 65.1156 66.847 64.4037 64.3156C63.7201 61.848 62.0327 60.5858 59.32 60.6071ZM105.827 16.3673C105.058 16.7857 104.233 17.2253 103.407 17.6791C101.135 18.9271 101.142 18.9413 102.396 21.0969C107.956 30.6554 113.517 40.2138 119.063 49.7794C121.043 53.19 121 53.1475 124.432 51.233C125.763 50.4884 125.799 49.7652 125.073 48.5668C123.214 45.4965 121.456 42.3694 119.654 39.2636C115.461 32.0381 111.26 24.8196 107.052 17.6011C106.774 17.119 106.646 16.4666 105.827 16.3673ZM48.5689 19.388C48.5689 18.7711 48.1489 18.5939 47.8071 18.3882C47.0025 17.8919 46.1482 17.4735 45.3792 16.9346C44.3254 16.1901 43.7131 16.339 43.0367 17.5161C37.4334 27.273 31.7588 36.9875 26.1269 46.7232C24.0052 50.3892 24.055 50.3537 27.7218 52.403C28.8396 53.027 29.3238 52.7859 29.9147 51.7506C35.9382 41.2845 42.0044 30.8468 48.0563 20.402C48.2628 20.0404 48.4265 19.6646 48.5689 19.388ZM57.7679 85.971C58.6792 86.0064 59.5265 85.7795 60.3097 85.3328C63.891 83.2835 67.4937 81.2768 71.0323 79.1567C73.5884 77.6251 74.3431 74.5973 72.9404 72.1226C71.5022 69.577 68.4549 68.7261 65.7351 70.2293C62.1253 72.2218 58.5511 74.2853 54.9982 76.3842C52.9975 77.5683 52.1218 79.8729 52.6985 82.0001C53.3179 84.255 55.461 85.9426 57.7679 85.971ZM74.2007 80.043C73.9657 80.0785 73.3748 80.0289 72.9262 80.2558C70.3559 81.5605 67.7287 82.8156 65.4645 84.6024C63.6489 86.0348 63.414 88.6655 64.6457 90.7006C65.8063 92.6222 68.3979 93.6929 70.4983 92.8065C73.0971 91.7075 75.5962 90.3247 77.8105 88.5591C79.3626 87.3182 79.7898 84.9073 79.0636 83.0495C78.3231 81.1988 76.5716 80.043 74.2007 80.043Z" fill="white" stroke="white" stroke-width="3" stroke-miterlimit="10"/>
<path d="M118.273 11.3754C120.445 11.3754 122.125 13.0417 122.097 15.1477C122.068 17.1828 120.381 18.8775 118.394 18.8846C116.308 18.8917 114.485 17.0977 114.535 15.0839C114.578 13.0701 116.294 11.3754 118.273 11.3754ZM118.302 12.6163C116.878 12.6163 115.724 13.7508 115.724 15.1548C115.731 16.4453 117.063 17.7359 118.359 17.7075C119.775 17.6791 120.851 16.5517 120.858 15.091C120.865 13.6019 119.847 12.6163 118.302 12.6163Z" fill="#007CD5" stroke="white" stroke-width="3" stroke-miterlimit="10"/>
<path d="M27.1379 15.0626C27.1593 12.9992 28.8182 11.3541 30.8545 11.3541C32.9834 11.3612 34.7562 13.1126 34.6993 15.1548C34.6352 17.2253 32.8196 18.9484 30.7548 18.8917C28.7541 18.842 27.1165 17.1048 27.1379 15.0626ZM30.8616 12.6163C29.338 12.6234 28.3056 13.6941 28.3554 15.2044C28.3981 16.5801 29.4875 17.6791 30.8331 17.7146C32.1361 17.743 33.4746 16.4453 33.496 15.1335C33.5174 13.7437 32.3212 12.6021 30.8616 12.6163Z" fill="#007CD5" stroke="white" stroke-width="3" stroke-miterlimit="10"/>
</svg>
