<svg width="101" height="98" viewBox="0 0 101 98" fill="none" xmlns="http://www.w3.org/2000/svg">
<g clip-path="url(#clip0_126_376)">
<path d="M100.968 42.7039C100.968 46.5554 100.88 50.4068 100.993 54.252C101.08 57.297 99.9868 59.7291 97.863 61.8362C93.1219 66.538 88.412 71.2711 83.7021 76.0041C82.4653 77.2483 80.5476 78.4613 83.5522 79.9556C84.0145 80.187 84.3643 81.1186 84.3768 81.7251C84.4392 86.2455 84.4954 90.7785 84.3455 95.299C84.2831 97.1935 82.7964 97.9813 81.0161 97.9875C72.8707 98.0125 64.7315 98.0188 56.586 97.9813C54.4247 97.9688 53.2129 96.7621 53.1879 94.58C53.1442 90.5034 53.1567 86.4269 53.1941 82.3565C53.2066 80.8872 53.7688 79.568 55.3304 79.2741C57.7728 78.8114 58.0664 77.117 57.7728 75.2163C56.8983 69.6329 59.0846 65.6189 63.2573 61.9362C68.6793 57.1594 73.5515 51.7573 78.6987 46.6616C79.6544 45.7175 80.6601 44.417 81.8344 44.1669C85.5511 43.3666 85.8822 40.9344 85.676 37.8395C85.5074 35.2448 85.5636 32.6313 85.6823 30.0303C85.8822 25.7724 89.3053 22.4774 93.3468 22.4961C97.382 22.5149 100.786 25.8412 100.918 30.1366C101.042 34.3194 100.943 38.5148 100.943 42.7039C100.955 42.7039 100.961 42.7039 100.968 42.7039ZM96.4201 44.6484C96.4201 39.0712 96.4888 35.1072 96.3888 31.1495C96.3388 29.205 95.6392 27.4668 93.2781 27.4856C90.9106 27.5043 90.3172 29.2675 90.2173 31.2057C90.1111 33.3503 90.161 35.5011 90.1548 37.6519C90.1485 41.122 90.0111 44.4608 92.1474 47.6995C93.7653 50.1442 93.2281 53.2454 91.2042 55.6151C89.5176 57.5846 87.6062 59.3665 85.7697 61.2047C84.7016 62.2801 83.4273 62.7866 82.1905 61.6236C80.9224 60.4294 81.4471 59.1352 82.4591 58.041C84.0769 56.3028 85.8384 54.696 87.3688 52.8828C88.7743 51.2134 88.6244 49.4752 86.6755 48.2873C85.0014 47.2681 83.6647 48.206 82.4778 49.3939C76.2438 55.6338 69.9973 61.8612 63.7945 68.1261C62.4202 69.5141 61.6332 76.0666 62.5514 77.8236C62.7388 78.1862 63.0886 78.5488 63.4572 78.7302C66.0557 80.0119 74.3636 78.5176 76.4937 76.398C80.0167 72.8842 83.2586 69.0265 87.094 65.9065C94.4899 59.9042 98.9499 52.9578 96.4201 44.6484ZM69.0166 83.8321C66.2993 83.8321 63.5821 83.8884 60.8649 83.8134C58.8222 83.7571 57.9602 84.6762 58.0602 86.6707C58.1101 87.6898 58.1351 88.7152 58.0477 89.7281C57.8478 92.1853 58.8472 93.2107 61.3771 93.1482C66.3555 93.0294 71.3403 93.0294 76.3187 93.1482C78.8486 93.2107 79.8543 92.1853 79.6357 89.7281C79.5544 88.8278 79.5607 87.9087 79.6357 87.0083C79.823 84.7012 78.8673 83.6758 76.4937 83.7946C74.0013 83.9196 71.5027 83.8259 69.0166 83.8321Z" fill="white"/>
<path d="M20.3879 77.8673C14.3912 71.8838 9.01923 66.4004 3.4973 61.0734C1.04242 58.7037 -0.0694594 56.0715 0.00549888 52.6389C0.155415 45.1673 0.0179919 37.6957 0.0617176 30.2241C0.0929502 25.0471 3.11002 21.6708 7.62625 21.627C12.1612 21.5833 15.2657 24.9596 15.3657 30.0615C15.3969 31.6434 15.4719 33.2377 15.3532 34.8133C15.0596 38.7648 14.9597 42.4663 20.0693 43.623C21.125 43.8605 21.9745 45.161 22.8553 46.0364C27.3465 50.5006 31.5942 55.2524 36.3603 59.404C41.2638 63.6744 44.5557 68.2824 43.2627 75.1475C43.0065 76.5168 43.2314 77.8736 45.1429 78.1299C47.2417 78.4113 47.8414 79.9619 47.8476 81.8251C47.8601 85.6703 47.8663 89.5218 47.8289 93.367C47.8039 95.7179 46.5983 96.8246 44.1996 96.8121C36.1729 96.7683 28.1461 96.7745 20.1131 96.8121C17.6707 96.8246 16.5713 95.5928 16.5463 93.292C16.5026 89.4467 16.5088 85.5953 16.5338 81.75C16.5525 79.6242 17.4395 78.0736 20.3879 77.8673ZM4.57171 41.7035C4.56546 41.7035 4.55921 41.7035 4.55297 41.7035C4.55297 44.986 4.69039 48.2747 4.50924 51.5447C4.35932 54.3896 5.36501 56.4779 7.38889 58.4286C12.5173 63.3743 17.9268 68.1198 22.393 73.6282C26.472 78.6489 31.463 78.2299 36.7413 78.0361C37.5971 78.0049 38.5215 77.7047 38.5153 76.8107C38.5028 73.0967 39.8271 69.214 36.354 66.019C31.944 61.9675 27.8462 57.5783 23.5986 53.3454C21.7559 51.5135 19.9569 49.619 17.983 47.9371C16.5588 46.7179 14.816 46.5303 13.4293 48.0622C12.0613 49.5752 12.8171 51.007 13.9977 52.2513C15.322 53.6455 16.7024 54.9836 18.0455 56.3653C19.2073 57.5533 20.3004 58.9038 18.8762 60.4732C17.3896 62.1113 16.0091 61.0234 14.816 59.8667C13.2731 58.3723 11.724 56.878 10.2748 55.2899C7.65124 52.4076 7.32642 48.9813 9.33155 45.6112C10.0249 44.442 10.8557 43.3916 10.8432 41.9161C10.812 38.0708 10.862 34.2194 10.8182 30.3741C10.7932 28.2546 10.0499 26.3226 7.64499 26.3789C5.25882 26.4289 4.59045 28.3859 4.57795 30.4992C4.55297 34.2381 4.57171 37.9708 4.57171 41.7035ZM31.9689 92.2978C34.6737 92.2978 37.3784 92.2416 40.0769 92.3166C42.0383 92.3729 43.069 91.6476 42.9628 89.5843C42.9128 88.5714 42.8941 87.546 42.9816 86.5394C43.2064 83.9446 42.132 82.8567 39.4773 82.9255C34.7486 83.0443 30.0075 83.0756 25.2852 82.9067C22.3743 82.8067 21.0375 83.8196 21.3811 86.802C21.4685 87.5835 21.4561 88.3838 21.3873 89.1654C21.1937 91.4788 22.1682 92.4541 24.5293 92.3291C27.003 92.204 29.4891 92.3041 31.9689 92.2978Z" fill="white"/>
<path d="M72.0281 11.8795C68.5238 16.3125 71.9781 18.0069 75.7572 20.3828C78.6681 22.2085 77.3126 29.1674 73.9895 30.4867C70.9474 31.6934 69.7231 32.9814 71.6158 36.1451C72.8214 38.1646 72.053 40.0716 70.3915 41.6284C68.5238 43.3791 66.8559 45.9676 63.8014 44.5045C60.5157 42.9352 58.5106 43.1603 57.3425 47.068C56.5117 49.8566 53.8132 49.7628 51.3646 49.8003C48.8972 49.8441 46.7172 49.3439 45.9051 46.7616C44.8744 43.5041 43.2254 42.7539 40.177 44.4608C37.4348 46.0051 35.5609 44.1731 33.6744 42.3787C31.6755 40.478 30.5199 38.4272 31.9691 35.7824C33.2996 33.3628 33.0685 31.9435 30.1264 31.1619C27.1531 30.3741 26.391 28.0857 26.4035 25.1221C26.4222 22.121 26.8532 19.6325 30.1264 18.7759C32.8374 18.0694 33.1809 16.7251 31.9067 14.3617C30.445 11.6482 31.5256 9.50363 33.6182 7.44034C35.6483 5.43333 37.6472 4.02029 40.4581 5.57088C43.0504 7.00268 44.6308 6.49623 45.4803 3.56386C46.1987 1.10042 47.904 -0.0375173 50.5713 -2.92738e-06C53.4946 0.0375114 56.4555 -0.0937888 57.5486 3.37004C58.4918 6.37118 59.8973 6.86512 62.752 5.45833C66.1501 3.78895 71.8906 7.6029 72.0281 11.8795ZM51.8768 44.7921C53.0199 44.7421 53.326 44.4983 54.0818 43.029C56.7865 37.7644 57.6298 37.3768 62.9456 39.2525C64.1887 39.6902 65.2693 40.0528 66.325 38.8836C67.3119 37.7895 66.7248 36.8016 66.3312 35.7449C64.5385 30.9431 65.1069 29.5425 69.8043 27.2917C70.9599 26.7415 72.0843 26.2725 72.0406 24.6844C71.9968 23.2526 70.9786 22.8712 69.9105 22.3961C65.0382 20.2327 64.4823 18.8822 66.3437 13.7365C66.7435 12.6298 67.137 11.642 66.1126 10.6291C64.9882 9.51614 63.9076 9.94755 62.702 10.4352C57.9234 12.3485 56.3868 11.767 54.138 7.22776C53.5696 6.08357 53.1136 4.9644 51.5145 5.01442C49.9216 5.06444 49.5343 6.27115 48.9722 7.37782C46.7796 11.7295 45.3304 12.2859 40.633 10.6103C40.3145 10.4978 39.9772 10.4227 39.6711 10.2789C38.6154 9.78499 37.7472 10.0038 36.9101 10.8104C35.9856 11.7107 36.2855 12.5861 36.6603 13.5927C38.7903 19.2574 38.4717 20.0577 33.056 22.6462C31.9941 23.1526 31.0134 23.5903 31.0446 25.0221C31.0696 26.4601 32.0691 26.854 33.1435 27.323C38.3468 29.5863 38.8028 30.6242 36.9414 36.1013C36.5541 37.2392 36.2542 38.2459 37.2412 39.2213C38.2531 40.2216 39.2588 39.8027 40.3582 39.3776C45.3554 37.4518 46.7921 37.9833 49.172 42.6788C49.7655 43.8418 50.3401 44.8984 51.8768 44.7921Z" fill="white"/>
<path d="M51.577 34.8946C45.9427 34.8821 41.4514 30.3616 41.5014 24.7532C41.5514 19.3574 46.0676 14.887 51.5146 14.8432C57.0427 14.7994 61.8463 19.47 61.8276 24.872C61.8088 30.4679 57.2676 34.9009 51.577 34.8946ZM57.0865 24.8595C57.074 21.9209 54.6815 19.7075 51.5708 19.7576C48.4788 19.8076 46.0426 22.1397 46.0988 24.9846C46.155 27.7669 48.7661 30.2241 51.6832 30.2303C54.5379 30.2491 57.0927 27.7044 57.0865 24.8595Z" fill="white"/>
</g>
<defs>
<clipPath id="clip0_126_376">
<rect width="101" height="98" fill="white"/>
</clipPath>
</defs>
</svg>
