<svg width="91" height="98" viewBox="0 0 91 98" fill="none" xmlns="http://www.w3.org/2000/svg">
<path d="M90.2484 23.7922C90.275 29.8581 89.6837 35.8774 88.5476 41.8366C87.5244 47.2026 86.0826 52.4487 84.1227 57.5481C82.0697 62.9007 79.4918 67.9868 76.2961 72.7529C73.4989 76.919 70.3098 80.7452 66.6822 84.2048C61.1478 89.4908 54.8758 93.6837 47.9329 96.8766C47.6671 96.9966 47.3947 97.1166 47.129 97.2432C46.046 97.7898 44.963 97.7698 43.8601 97.2766C38.1064 94.6902 32.7647 91.4506 27.8813 87.4244C22.121 82.6783 17.3041 77.1057 13.3576 70.7731C9.61037 64.7472 6.79332 58.2946 4.75362 51.4888C3.27865 46.5694 2.20232 41.57 1.51799 36.4839C1.126 33.591 0.86024 30.6847 0.720716 27.7717C0.601124 25.3053 0.6277 22.8389 0.66092 20.3659C0.667564 19.886 0.700784 19.3994 0.767224 18.9261C1.04627 17.0263 2.74713 15.7865 4.66724 16.0598C6.66044 16.3397 8.66028 16.513 10.6801 16.4997C16.54 16.453 22.1276 15.1532 27.4495 12.7202C33.356 10.0272 38.5449 6.32095 42.9898 1.56819C44.3916 0.0683734 46.6174 0.0750394 47.9727 1.57486C50.4842 4.35452 53.3544 6.70757 56.4505 8.78731C61.2674 12.0336 66.4829 14.38 72.1635 15.6065C74.1766 16.0398 76.2163 16.2997 78.276 16.4197C80.9601 16.5797 83.6244 16.4197 86.282 16.0464C88.4546 15.7465 90.1421 17.2463 90.2285 19.586C90.2883 20.9925 90.2484 22.3923 90.2484 23.7922ZM84.9067 23.0589C84.9266 22.219 84.9266 22.219 84.0895 22.2923C83.9366 22.3057 83.7772 22.3123 83.6244 22.319C80.9468 22.3657 78.276 22.319 75.6051 21.9724C70.1504 21.2658 64.9614 19.6993 60.0117 17.3129C54.7695 14.7866 50.0257 11.5136 45.7537 7.55413C45.5145 7.33416 45.3749 7.34082 45.1424 7.55413C42.8635 9.6872 40.4185 11.6136 37.8207 13.3468C32.6052 16.833 26.991 19.4127 20.9051 20.9258C18.4668 21.5324 15.9952 21.9324 13.4971 22.159C11.2249 22.3657 8.95262 22.3523 6.68037 22.2723C6.05584 22.2523 6.05584 22.2123 6.05584 22.8389C6.04919 25.7586 6.24187 28.6716 6.52092 31.5779C6.87969 35.2774 7.44443 38.937 8.22842 42.5632C9.94921 50.4889 12.6002 58.0613 16.5533 65.1605C19.2774 70.0532 22.5595 74.5393 26.4529 78.5588C29.4692 81.6785 32.7846 84.4448 36.3923 86.8578C39.1695 88.7176 42.0596 90.3574 45.076 91.7839C45.3484 91.9105 45.5942 91.9239 45.8666 91.7839C46.9296 91.244 48.006 90.724 49.0557 90.1574C55.6 86.6312 61.367 82.1317 66.3101 76.5524C71.3197 70.8998 75.1467 64.5139 78.0434 57.5481C80.8073 50.8955 82.6477 43.9764 83.7373 36.8572C84.4482 32.2978 84.807 27.6917 84.9067 23.0589Z" fill="white"/>
<path d="M21.3564 47.6496C21.3564 45.8298 22.3863 44.29 24.0539 43.6034C25.6684 42.9435 27.5221 43.3034 28.7446 44.6233C30.4786 46.5031 32.1662 48.4295 33.8671 50.3359C35.8802 52.5956 37.8867 54.8554 39.8932 57.1151C40.7569 58.0883 41.6339 59.0549 42.491 60.0347C42.7036 60.2747 42.8099 60.2747 43.0225 60.0347C48.0786 54.3421 53.1479 48.6561 58.2106 42.9702C61.3865 39.4039 64.5556 35.831 67.7182 32.2515C68.5753 31.2849 69.5187 30.5317 70.8541 30.3384C73.1264 30.0051 75.4518 31.7982 75.6777 34.0912C75.8238 35.5177 75.3588 36.7042 74.4153 37.7575C71.4189 41.1104 68.4224 44.47 65.4327 47.8296C62.217 51.4425 59.0079 55.0687 55.7922 58.6816C52.4968 62.3878 49.208 66.1073 45.8927 69.8002C44.2051 71.68 41.1755 71.5933 39.4945 69.6936C36.2656 66.0473 33.0233 62.4145 29.7877 58.7749C27.3626 56.0552 24.9376 53.3356 22.5191 50.6092C21.7817 49.7693 21.3564 48.7961 21.3564 47.6496Z" fill="white"/>
</svg>
