<svg width="67" height="93" viewBox="0 0 67 93" fill="none" xmlns="http://www.w3.org/2000/svg">
<g clip-path="url(#clip0_126_299)">
<path d="M12.368 72.9519C12.368 69.0943 12.3491 65.243 12.3806 61.3854C12.3869 60.6127 12.1789 60.0426 11.593 59.5105C8.3419 56.5397 5.51926 53.2205 3.57869 49.2236C1.3231 44.5869 0.10709 39.7602 0.00628149 34.5281C-0.163833 25.7804 2.65881 18.2299 8.22219 11.674C13.5651 5.37768 20.4074 1.60244 28.5541 0.398929C38.2884 -1.03895 47.021 1.44409 54.6446 7.65802C61.4996 13.2512 65.6454 20.5483 66.6976 29.3276C68.0081 40.2796 65.0027 49.9837 57.0199 57.7876C55.1613 59.6055 54.4304 61.4171 54.4808 64.0142C54.6383 72.0904 54.5312 80.1793 54.5123 88.2618C54.5123 89.0346 54.4556 89.8137 54.3737 90.5865C54.1406 92.7275 52.4583 93.6143 50.5871 92.5438C46.8193 90.4028 43.228 87.9704 39.5548 85.6711C37.8726 84.6196 36.1777 83.5998 34.5333 82.4913C33.7835 81.9845 33.1913 81.9972 32.4352 82.485C28.0563 85.291 23.6522 88.0591 19.2544 90.8335C18.3409 91.41 17.4147 91.9864 16.4759 92.5185C14.5101 93.6333 12.6641 92.6578 12.5444 90.3838C12.4184 87.9641 12.3995 85.5381 12.3806 83.1121C12.3491 79.7295 12.368 76.3407 12.368 72.9519ZM33.4874 62.3483C47.6447 62.7917 61.7012 51.0416 61.7957 33.9326C61.8713 18.6987 49.7743 5.11797 32.7691 5.327C17.8809 5.50436 5.27984 18.3313 5.17273 33.5843C5.05932 50.4651 18.9331 62.7663 33.4874 62.3483ZM17.6289 74.6874C17.6289 77.9496 17.6226 81.2118 17.6352 84.4802C17.6352 84.797 17.4399 85.2404 17.799 85.4114C18.0762 85.5444 18.3409 85.1834 18.5929 85.025C22.9844 82.2442 27.3885 79.4762 31.7484 76.6447C32.8006 75.9606 33.7457 75.9606 34.779 76.5371C35.346 76.8538 35.9194 77.1578 36.4675 77.5062C40.3928 79.9829 44.3117 82.4723 48.237 84.9553C48.4953 85.1137 48.7599 85.4367 49.0497 85.31C49.4215 85.1453 49.2514 84.702 49.264 84.3789C49.327 82.2379 49.4089 80.0906 49.4026 77.9496C49.39 73.693 49.3207 69.4363 49.2766 65.1797C49.2639 63.7481 49.2514 63.7291 47.9849 64.3752C41.6592 67.5994 34.9302 68.1821 28.0311 67.289C24.7989 66.8709 21.7432 65.7181 18.8071 64.2865C17.6352 63.7165 17.6226 63.7228 17.6226 64.9896C17.6289 68.2265 17.6289 71.457 17.6289 74.6874Z" fill="white"/>
<path d="M17.5156 51.8208C17.7991 50.1105 18.1646 47.9379 18.5174 45.7652C18.8702 43.6242 19.1978 41.4769 19.5696 39.3359C19.6704 38.7532 19.5066 38.3478 19.1159 37.9234C16.5957 35.187 13.8487 32.6722 11.2403 30.0245C10.7173 29.4924 10.1944 28.9604 9.74073 28.3776C8.56252 26.8827 9.24928 24.8811 11.1016 24.4883C13.8172 23.9056 16.5768 23.5445 19.3302 23.1581C20.8549 22.9428 22.3859 22.7084 23.917 22.5311C24.6667 22.4424 25.0952 22.1067 25.4354 21.4099C27.0861 18.04 28.7936 14.6955 30.4884 11.3447C30.7404 10.8443 31.0114 10.3566 31.3012 9.88148C32.4479 7.98753 34.3948 7.93686 35.5982 9.80547C37.0536 12.0858 38.0932 14.5879 39.3029 17.0012C40.0842 18.5531 40.8465 20.1177 41.5963 21.6823C41.8168 22.1383 42.0877 22.379 42.6296 22.455C46.7249 23.0378 50.814 23.6712 54.903 24.2856C55.237 24.3363 55.5772 24.3997 55.9048 24.4757C57.6375 24.8937 58.3872 26.8447 57.2783 28.2446C55.6906 30.2399 53.7563 31.9058 51.9796 33.7174C50.6376 35.0919 49.283 36.4601 47.9283 37.8157C47.3991 38.3478 47.2794 38.9115 47.4117 39.6716C48.0795 43.4595 48.6844 47.2601 49.2893 51.0607C49.3712 51.5801 49.3523 52.1122 49.3523 52.6442C49.346 54.3165 48.0291 55.3173 46.4099 54.8232C44.3244 54.1898 42.4721 53.0433 40.5441 52.0615C38.5279 51.0417 36.5117 50.0155 34.546 48.9134C33.7395 48.4573 33.1157 48.508 32.3219 48.9324C29.2724 50.5793 26.1915 52.1628 23.1105 53.7464C22.367 54.1265 21.6047 54.4812 20.8234 54.7662C18.9836 55.425 17.4715 54.2912 17.5156 51.8208ZM17.7865 28.688C17.692 28.8273 17.5975 28.9604 17.4967 29.0997C18.07 29.5621 18.6875 29.9802 19.2041 30.4996C20.9998 32.2985 22.8585 34.0341 24.5407 35.9407C25.0195 36.4855 25.1897 37.0556 25.0952 37.8093C24.736 40.7358 24.1438 43.6242 23.7027 46.5443C23.6586 46.8294 23.3688 47.1778 23.7027 47.3868C23.9422 47.5388 24.2194 47.2538 24.4588 47.1334C27.0294 45.8412 29.6 44.549 32.1518 43.2252C33.0905 42.7438 33.96 42.7818 34.8862 43.2632C37.3812 44.568 39.8951 45.8412 42.4028 47.1144C42.6422 47.2348 42.9131 47.5261 43.1525 47.3615C43.4486 47.1651 43.2596 46.7914 43.2155 46.5C42.7682 43.7446 42.3145 40.9892 41.8483 38.2337C41.6782 37.2456 41.9176 36.4411 42.617 35.681C44.211 33.9454 45.8996 32.2985 47.5692 30.6389C48.1552 30.0562 48.823 29.5684 49.4594 29.0364C49.3775 28.935 49.2956 28.8337 49.2199 28.7323C49.075 28.7006 48.9364 28.6626 48.7915 28.6373C45.8744 28.1242 42.9257 27.7822 40.0148 27.1994C38.9564 26.9841 38.2129 26.4773 37.7341 25.5145C36.7134 23.4559 35.6738 21.4099 34.6342 19.3576C34.2751 18.6481 33.9096 17.945 33.5253 17.1849C33.0653 17.66 32.9078 18.1731 32.6684 18.6291C31.4398 20.9982 30.3939 23.4622 29.033 25.7552C28.4533 26.7307 27.628 27.2184 26.4813 27.3641C23.5767 27.7632 20.6848 28.2446 17.7865 28.688Z" fill="white"/>
</g>
<defs>
<clipPath id="clip0_126_299">
<rect width="67" height="93" fill="white"/>
</clipPath>
</defs>
</svg>
